<svg id="Capa_1" enable-background="new 0 0 510 510" height="512" viewBox="0 0 510 510" width="512" xmlns="http://www.w3.org/2000/svg" xmlns:xlink="http://www.w3.org/1999/xlink"><linearGradient id="SVGID_1_" gradientUnits="userSpaceOnUse" x1="278.328" x2="389.811" y1="127.705" y2="239.188"><stop offset="0" stop-color="#ff637b"/><stop offset="1" stop-color="#f90217"/></linearGradient><linearGradient id="SVGID_2_" gradientUnits="userSpaceOnUse" x1="365.217" x2="321.708" y1="223.529" y2="180.019"><stop offset="0" stop-color="#f90217" stop-opacity="0"/><stop offset=".2669" stop-color="#e7010f" stop-opacity=".267"/><stop offset=".7232" stop-color="#ce0004" stop-opacity=".723"/><stop offset="1" stop-color="#c50000"/></linearGradient><linearGradient id="SVGID_3_" gradientUnits="userSpaceOnUse" x1="339.536" x2="422.18" y1="283.773" y2="366.417"><stop offset="0" stop-color="#7faef4"/><stop offset="1" stop-color="#4c8df1"/></linearGradient><linearGradient id="SVGID_4_" gradientTransform="matrix(0 1 -1 0 472.141 -130.629)" gradientUnits="userSpaceOnUse" x1="495.846" x2="442.568" y1="185.67" y2="132.392"><stop offset="0" stop-color="#4c8df1" stop-opacity="0"/><stop offset=".5631" stop-color="#466cc8" stop-opacity=".563"/><stop offset="1" stop-color="#4256ac"/></linearGradient><linearGradient id="SVGID_5_" gradientUnits="userSpaceOnUse" x1="158.251" x2="282.541" y1="308.873" y2="433.164"><stop offset="0" stop-color="#28a265"/><stop offset="1" stop-color="#28895e"/></linearGradient><linearGradient id="SVGID_6_" gradientUnits="userSpaceOnUse" x1="146.651" x2="190.497" y1="288.339" y2="332.185"><stop offset="0" stop-color="#108372" stop-opacity="0"/><stop offset="1" stop-color="#006837"/></linearGradient><linearGradient id="SVGID_7_" gradientUnits="userSpaceOnUse" x1="100.686" x2="193.038" y1="156.449" y2="248.801"><stop offset="0" stop-color="#ffd833"/><stop offset="1" stop-color="#f2b631"/></linearGradient><linearGradient id="SVGID_8_" gradientUnits="userSpaceOnUse" x1="220.82" x2="183.035" y1="147.492" y2="185.276"><stop offset="0" stop-color="#f9a126" stop-opacity="0"/><stop offset="1" stop-color="#f9a126"/></linearGradient><g><g><path d="m255 9.076v194.897c0 28.182 22.845 51.027 51.027 51.027h87.147v-113.61c0-12.804-5.197-25.06-14.4-33.962l-108.418-104.863c-5.749-5.56-15.356-1.486-15.356 6.511z" fill="url(#SVGID_1_)"/><path d="m393.179 145.495v109.505h-87.153c-9.878 0-19.102-2.811-26.914-7.668-3.756-2.335-4.313-7.591-1.185-10.718l98.187-98.187c6.297-6.298 17.065-1.838 17.065 7.068z" fill="url(#SVGID_2_)"/></g><g><path d="m500.924 255h-194.897c-28.182 0-51.027 22.845-51.027 51.027v87.147h113.61c12.804 0 25.06-5.197 33.962-14.4l104.863-108.418c5.56-5.749 1.486-15.356-6.511-15.356z" fill="url(#SVGID_3_)"/><path d="m364.505 393.179h-109.505v-87.153c0-9.878 2.811-19.102 7.668-26.914 2.335-3.756 7.591-4.313 10.718-1.185l98.187 98.187c6.298 6.297 1.838 17.065-7.068 17.065z" fill="url(#SVGID_4_)"/></g><g><path d="m255 500.924v-194.897c0-28.182-22.845-51.027-51.027-51.027h-87.147v113.61c0 12.804 5.197 25.06 14.4 33.962l108.418 104.863c5.749 5.56 15.356 1.486 15.356-6.511z" fill="url(#SVGID_5_)"/><path d="m116.821 364.505v-109.505h87.153c9.878 0 19.102 2.811 26.914 7.668 3.756 2.335 4.313 7.591 1.185 10.718l-98.187 98.187c-6.297 6.298-17.065 1.838-17.065-7.068z" fill="url(#SVGID_6_)"/></g><g><path d="m9.076 255h194.897c28.182 0 51.027-22.845 51.027-51.027v-87.147h-113.61c-12.804 0-25.06 5.197-33.962 14.4l-104.863 108.418c-5.56 5.749-1.486 15.356 6.511 15.356z" fill="url(#SVGID_7_)"/><path d="m145.495 116.821h109.505v87.153c0 9.878-2.811 19.102-7.668 26.914-2.335 3.756-7.591 4.313-10.718 1.185l-98.187-98.187c-6.298-6.297-1.838-17.065 7.068-17.065z" fill="url(#SVGID_8_)"/></g></g></svg>